<svg xmlns="http://www.w3.org/2000/svg" viewBox="0 0 16 16" shape-rendering="crispEdges"><rect width="16" height="16" fill="#000"/><g fill="#0f0"><rect x="1" y="7" width="1" height="1"/><rect x="14" y="7" width="1" height="1"/><rect x="1" y="9" width="1" height="1"/><rect x="14" y="9" width="1" height="1"/><rect x="1" y="11" width="1" height="1"/><rect x="14" y="11" width="1" height="1"/><rect x="2" y="6" width="1" height="1"/><rect x="13" y="6" width="1" height="1"/><rect x="2" y="8" width="1" height="1"/><rect x="13" y="8" width="1" height="1"/><rect x="2" y="9" width="1" height="1"/><rect x="13" y="9" width="1" height="1"/><rect x="3" y="6" width="1" height="1"/><rect x="12" y="6" width="1" height="1"/><rect x="3" y="9" width="1" height="1"/><rect x="12" y="9" width="1" height="1"/><rect x="3" y="11" width="1" height="1"/><rect x="12" y="11" width="1" height="1"/><rect x="4" y="5" width="1" height="1"/><rect x="11" y="5" width="1" height="1"/><rect x="4" y="6" width="1" height="1"/><rect x="11" y="6" width="1" height="1"/><rect x="4" y="7" width="1" height="1"/><rect x="11" y="7" width="1" height="1"/><rect x="4" y="8" width="1" height="1"/><rect x="11" y="8" width="1" height="1"/><rect x="4" y="9" width="1" height="1"/><rect x="11" y="9" width="1" height="1"/><rect x="5" y="6" width="1" height="1"/><rect x="10" y="6" width="1" height="1"/><rect x="5" y="8" width="1" height="1"/><rect x="10" y="8" width="1" height="1"/><rect x="5" y="10" width="1" height="1"/><rect x="10" y="10" width="1" height="1"/><rect x="5" y="11" width="1" height="1"/><rect x="10" y="11" width="1" height="1"/><rect x="6" y="4" width="1" height="1"/><rect x="9" y="4" width="1" height="1"/><rect x="6" y="6" width="1" height="1"/><rect x="9" y="6" width="1" height="1"/><rect x="6" y="7" width="1" height="1"/><rect x="9" y="7" width="1" height="1"/><rect x="6" y="8" width="1" height="1"/><rect x="9" y="8" width="1" height="1"/><rect x="6" y="9" width="1" height="1"/><rect x="9" y="9" width="1" height="1"/><rect x="6" y="11" width="1" height="1"/><rect x="9" y="11" width="1" height="1"/><rect x="6" y="12" width="1" height="1"/><rect x="9" y="12" width="1" height="1"/><rect x="7" y="4" width="1" height="1"/><rect x="8" y="4" width="1" height="1"/><rect x="7" y="5" width="1" height="1"/><rect x="8" y="5" width="1" height="1"/><rect x="7" y="6" width="1" height="1"/><rect x="8" y="6" width="1" height="1"/><rect x="7" y="7" width="1" height="1"/><rect x="8" y="7" width="1" height="1"/><rect x="7" y="8" width="1" height="1"/><rect x="8" y="8" width="1" height="1"/><rect x="7" y="9" width="1" height="1"/><rect x="8" y="9" width="1" height="1"/><rect x="7" y="10" width="1" height="1"/><rect x="8" y="10" width="1" height="1"/><rect x="7" y="11" width="1" height="1"/><rect x="8" y="11" width="1" height="1"/><rect x="7" y="12" width="1" height="1"/><rect x="8" y="12" width="1" height="1"/></g></svg>
